HIERARCHY
ROOT Pelvis
{
	OFFSET 0.000000 0.000000 0.000000
	CHANNELS 6 Xposition Yposition Zposition Zrotation Yrotation Xrotation 
	JOINT Left_hip
	{
		OFFSET 0.068973 -0.091024 -0.007589
		CHANNELS 3 Zrotation Yrotation Xrotation
		JOINT Left_knee
		{
			OFFSET 0.036482 -0.391037 -0.003979
			CHANNELS 3 Zrotation Yrotation Xrotation
			JOINT Left_ankle
			{
				OFFSET -0.012239 -0.415469 -0.043440
				CHANNELS 3 Zrotation Yrotation Xrotation
				JOINT Left_foot
				{
					OFFSET 0.023806 -0.058558 0.118702
					CHANNELS 3 Zrotation Yrotation Xrotation
					End Site
					{
						OFFSET 0.000000 0.000000 0.000000
					}
				}
			}
		}
	}
	JOINT Right_hip
	{
		OFFSET -0.066552 -0.090468 -0.003847
		CHANNELS 3 Zrotation Yrotation Xrotation
		JOINT Right_knee
		{
			OFFSET -0.042435 -0.398340 -0.006400
			CHANNELS 3 Zrotation Yrotation Xrotation
			JOINT Right_ankle
			{
				OFFSET 0.014931 -0.415421 -0.041327
				CHANNELS 3 Zrotation Yrotation Xrotation
				JOINT Right_foot
				{
					OFFSET -0.021472 -0.049410 0.121889
					CHANNELS 3 Zrotation Yrotation Xrotation
					End Site
					{
						OFFSET 0.000000 0.000000 0.000000
					}
				}
			}
		}
	}
	JOINT Spine1
	{
		OFFSET -0.002904 0.105700 -0.022855
		CHANNELS 3 Zrotation Yrotation Xrotation
		JOINT Spine2
		{
			OFFSET 0.004179 0.132554 -0.002501
			CHANNELS 3 Zrotation Yrotation Xrotation
			JOINT Spine3
			{
				OFFSET 0.001987 0.049603 0.025988
				CHANNELS 3 Zrotation Yrotation Xrotation
				JOINT Neck
				{
					OFFSET -0.003935 0.211336 -0.045638
					CHANNELS 3 Zrotation Yrotation Xrotation
					JOINT Head
					{
						OFFSET 0.003906 0.065991 0.051018
						CHANNELS 3 Zrotation Yrotation Xrotation
						End Site
						{
							OFFSET 0.000000 0.000000 0.000000
						}
					}
				}
				JOINT Left_collar
				{
					OFFSET 0.072882 0.117751 -0.036270
					CHANNELS 3 Zrotation Yrotation Xrotation
					JOINT Left_shoulder
					{
						OFFSET 0.082118 0.032630 -0.005771
						CHANNELS 3 Zrotation Yrotation Xrotation
						JOINT Left_elbow
						{
							OFFSET 0.263305 -0.015144 -0.028095
							CHANNELS 3 Zrotation Yrotation Xrotation
							JOINT Left_wrist
							{
								OFFSET 0.250741 0.010115 -0.000759
								CHANNELS 3 Zrotation Yrotation Xrotation
								JOINT Left_palm
								{
									OFFSET 0.080683 -0.009989 -0.013613
									CHANNELS 3 Zrotation Yrotation Xrotation
									End Site
									{
										OFFSET 0.000000 0.000000 0.000000
									}
								}
							}
						}
					}
				}
				JOINT Right_collar
				{
					OFFSET -0.074811 0.116132 -0.040385
					CHANNELS 3 Zrotation Yrotation Xrotation
					JOINT Right_shoulder
					{
						OFFSET -0.085089 0.032943 -0.007484
						CHANNELS 3 Zrotation Yrotation Xrotation
						JOINT Right_elbow
						{
							OFFSET -0.254763 -0.014219 -0.020321
							CHANNELS 3 Zrotation Yrotation Xrotation
							JOINT Right_wrist
							{
								OFFSET -0.256597 0.009233 -0.005063
								CHANNELS 3 Zrotation Yrotation Xrotation
								JOINT Right_palm
								{
									OFFSET -0.080528 -0.007219 -0.010379
									CHANNELS 3 Zrotation Yrotation Xrotation
									End Site
									{
										OFFSET 0.000000 0.000000 0.000000
									}
								}
							}
						}
					}
				}
			}
		}
	}
}
MOTION
Frames: 12
Frame Time: 0.100000
0.000000 0.000000 0.000000 176.810896 14.802812 -18.629211 9.466508 9.063280 17.758521 -2.517961 4.751918 -8.273628 -5.505517 9.787066 2.767875 3.716591 6.707764 -4.742580 -4.566260 -6.280197 15.731034 3.886297 -5.306186 -6.127229 6.248296 -5.008147 0.201365 -3.908100 -3.680294 3.262607 3.005700 0.409380 -1.765644 -0.489510 -2.622882 8.938606 0.591316 -0.910823 -0.192675 -3.995676 14.339854 4.086129 -4.639134 3.460440 -13.793325 -24.757903 -6.988925 10.079422 -53.047267 -0.172821 9.255135 2.723080 -25.955577 17.028418 -11.382730 -10.091705 9.339369 -11.060903 -3.754677 -23.809396 22.513071 11.078226 10.704490 54.583395 0.835406 12.074774 -5.869818 24.800096 8.650540 5.802791 6.143128 3.395696 12.277700 4.333285 -10.375301 
-0.000859 0.000619 -0.000230 176.652748 14.831720 -18.885096 9.608147 9.121826 18.199716 -2.505210 4.539410 -8.437526 -5.478495 9.770098 2.777362 3.574123 6.750758 -4.688139 -4.563894 -6.382439 16.056001 3.833736 -5.244953 -6.013145 6.465988 -5.193093 0.222569 -4.291205 -3.411686 3.171999 3.119359 0.324644 -1.620827 -0.460859 -2.788043 9.121989 0.531519 -1.013088 -0.070059 -4.099875 14.405453 4.165728 -4.821219 3.571497 -13.725087 -24.991458 -6.869910 10.191950 -52.789893 0.223966 8.919899 2.871417 -24.574553 16.609898 -11.393959 -9.464283 9.452618 -11.203583 -3.982855 -24.027243 22.527420 10.844219 10.528185 54.458656 0.576281 11.991636 -6.012140 25.028662 8.521450 5.758845 5.938804 3.769250 12.628319 4.511276 -10.515085 
-0.002475 0.000433 0.000919 176.650258 14.665069 -18.881130 9.544926 9.131152 18.253298 -2.474953 4.556711 -8.258859 -5.404224 9.903956 2.590212 3.551252 6.633724 -4.628566 -4.583825 -6.358922 15.994255 3.728220 -5.206687 -5.762891 6.434770 -5.190222 0.172723 -4.199851 -3.364421 3.160688 3.095413 0.285500 -1.575114 -0.372628 -2.834476 9.276281 0.576378 -1.046137 -0.101818 -4.192732 14.374075 4.096390 -4.892245 3.583373 -13.713229 -24.996938 -6.719898 10.153484 -52.694578 0.314329 8.919617 2.865242 -24.456170 16.512257 -11.395826 -9.494125 9.530208 -11.168306 -3.994341 -23.953648 22.677902 10.671871 10.511836 54.238299 0.391387 11.858387 -6.063078 24.459348 8.280922 5.812255 5.919167 3.934157 12.625681 4.526306 -10.465434 
-0.004116 0.000213 0.001999 176.677673 14.454488 -18.783287 9.446866 9.119567 18.223885 -2.478330 4.663460 -8.096339 -5.345966 10.037621 2.423103 3.601274 6.496684 -4.639437 -4.632523 -6.273976 15.833150 3.672569 -5.204829 -5.541747 6.296807 -5.048122 0.202639 -3.843781 -3.492526 3.202936 3.103746 0.244663 -1.647272 -0.265949 -2.819495 9.400102 0.639490 -1.045658 -0.216518 -4.172332 14.308376 4.253738 -4.888116 3.629706 -13.415474 -24.921994 -6.629086 10.050112 -52.683798 0.026423 9.118431 2.792403 -25.408061 16.784450 -11.423047 -9.952312 9.647534 -11.049799 -3.858405 -23.765431 22.806288 10.556992 10.648463 54.076460 0.266994 11.856890 -5.943438 23.856098 8.357231 5.953753 6.029184 3.988869 12.386951 4.441013 -10.325475 
-0.005395 -0.000065 0.003107 176.662387 14.153208 -18.718877 9.443762 9.054196 18.240523 -2.572517 4.910873 -8.007017 -5.420218 10.280354 2.202903 4.106667 6.048441 -4.753091 -4.666588 -6.152671 15.711495 3.737951 -5.257204 -5.406193 6.185558 -4.787554 0.304399 -3.380447 -3.716139 3.385580 3.171808 0.112289 -1.802228 -0.086513 -2.710831 9.147911 0.829459 -1.084787 -0.098570 -4.017216 14.767911 5.319485 -5.376283 4.511976 -11.034708 -24.432539 -5.887168 9.993081 -52.713500 -0.287498 9.366293 2.638291 -28.389183 17.754083 -10.579949 -10.849533 9.128228 -10.835582 -3.424687 -23.444154 22.792242 9.911868 10.842113 53.760250 0.644866 11.927360 -5.712381 23.846384 8.575910 5.784047 6.242904 3.607068 11.743636 4.155390 -10.106689 
-0.006798 -0.000235 0.004651 176.786862 13.609582 -18.675374 9.339883 8.923462 18.351800 -2.775157 5.323332 -7.933029 -5.504302 10.902550 1.733301 5.226523 4.976850 -4.991190 -4.830299 -5.968662 15.503791 3.856778 -5.395614 -5.073268 5.795470 -4.247488 0.236645 -1.865295 -4.151150 4.008582 3.350881 -0.041569 -2.672894 0.222469 -2.441895 8.805203 1.038031 -1.056098 0.136394 -3.186416 17.423214 9.487836 -6.755876 8.504639 -3.663699 -23.371041 -3.888794 9.831626 -52.376335 -0.667572 10.386746 1.780245 -32.735552 20.518391 -8.602273 -12.699367 8.552251 -10.412558 -2.602303 -22.853035 22.804708 8.179573 11.101735 52.875064 2.324952 12.428921 -4.993316 23.467795 8.987009 5.226138 6.901693 3.088255 10.496082 3.628714 -9.650011 
-0.010299 -0.000666 0.005496 177.043609 13.349547 -18.727689 8.960383 8.644421 18.398187 -3.054800 5.717631 -7.628415 -5.685814 11.577420 1.059664 6.803239 3.600082 -5.227155 -5.316354 -5.821500 15.487206 3.972473 -5.641087 -4.845311 5.363150 -3.750483 0.217813 -0.019664 -4.335397 4.859048 3.693338 -0.086617 -4.089720 0.659623 -2.083182 8.874881 1.057023 -0.976725 0.520180 -2.300777 20.347896 15.246718 -8.171982 12.886876 6.481515 -22.033027 -0.853638 9.541166 -51.419917 -1.144032 11.725688 0.089379 -39.038431 24.265199 -5.678125 -14.978607 7.980373 -9.875417 -1.612496 -21.928383 23.319788 5.523879 11.190747 51.164766 4.408558 12.789539 -4.280914 23.639149 8.884685 4.193388 7.761284 2.922294 9.068973 3.082556 -9.126801 
-0.017203 -0.001059 0.004602 177.231456 13.807612 -18.787941 8.254895 8.230174 18.116721 -3.287345 5.989645 -7.121547 -5.908203 11.978753 0.361448 8.208570 2.315452 -5.474373 -6.015895 -5.742260 15.532232 3.966449 -6.287802 -4.717073 5.079698 -3.217715 0.429105 1.701539 -4.870191 5.722084 3.915622 0.041412 -5.548983 1.042101 -1.719426 9.333903 0.934347 -0.771546 0.921339 -1.852555 21.500260 21.842282 -8.859923 15.039322 15.292724 -19.793840 1.705298 9.673992 -50.825803 -1.575957 13.639293 -3.958500 -46.167592 30.159074 -2.971221 -17.774971 7.350144 -9.339298 -0.472611 -21.301976 23.203234 3.507395 11.463409 50.168171 5.988698 13.006931 -3.342783 23.787413 8.917514 3.130544 9.003444 2.107895 7.504530 2.312598 -8.641083 
-0.026561 -0.001025 -0.000268 177.211766 14.956865 -19.348691 7.447133 7.468909 18.049193 -3.551976 5.947534 -6.504138 -5.847331 11.936263 -0.294483 8.776494 1.722724 -5.404443 -6.844215 -5.667717 15.938021 3.893574 -7.465953 -4.372798 4.602760 -2.565065 0.855625 3.490191 -6.160187 5.897086 3.754280 0.422028 -6.059167 0.963353 -1.128272 10.808114 0.793934 -0.480507 1.534726 -1.129114 21.111757 26.528990 -8.421508 14.599564 19.230118 -18.302107 2.721986 10.694680 -50.327388 -1.914946 14.117829 -7.889517 -52.373891 35.040675 -2.697038 -21.177035 6.062462 -8.133649 1.392036 -21.035194 22.797196 3.400575 12.586242 50.072079 6.834285 12.736300 -3.047853 24.217937 8.996110 2.828010 10.662706 0.401158 5.149767 0.864998 -7.666658 
-0.037318 -0.000290 -0.008520 177.016822 15.877280 -19.846481 6.594823 6.598925 18.066172 -3.929654 6.182395 -6.455004 -5.833611 11.963253 -1.027697 9.517466 1.187944 -5.077559 -7.564275 -5.565627 16.218399 3.817819 -8.891426 -4.347184 4.566270 -1.675841 1.686298 4.551287 -7.692986 5.357973 3.402354 0.890746 -5.555776 0.747738 0.066855 11.990452 0.996797 -0.034373 2.947110 -0.731531 20.092904 28.260620 -8.132291 12.861546 18.732630 -16.783073 5.048695 12.184324 -51.396255 -0.472232 12.813611 -14.377613 -61.646839 40.719988 -2.739628 -24.797284 0.545968 -6.302559 4.050081 -20.276319 21.921120 3.470433 13.639878 50.246876 7.554891 11.774472 -3.049773 25.584157 8.774250 2.970938 12.224948 -2.240916 1.806080 -1.263846 -6.308482 
-0.049093 0.001335 -0.021370 176.500866 17.486533 -19.604472 5.772430 5.909699 16.901880 -4.319259 5.794550 -6.577406 -5.715091 11.828507 -1.529386 10.141720 0.616764 -4.900429 -8.111854 -5.904348 15.549131 3.683177 -10.184205 -4.508659 4.180200 -1.035797 2.755846 6.197948 -9.414640 5.147189 2.907740 1.497114 -4.448367 0.684371 1.254854 13.055702 1.230460 0.586602 3.347238 -0.463922 18.548801 28.395987 -7.771687 11.538621 18.778375 -15.836683 7.446610 12.760264 -50.734874 0.943015 13.513612 -30.522466 -71.315693 60.936874 -1.770453 -27.769946 0.993200 -4.910413 5.593243 -19.553641 22.153100 2.743386 14.292886 49.442449 7.534485 10.688323 -3.363873 27.638319 9.531170 2.265982 13.360387 -2.968997 -0.479324 -2.229186 -5.340772 
-0.060693 0.003683 -0.036378 175.793324 19.245117 -18.957806 4.947514 5.281603 15.691277 -4.690074 5.210677 -7.893057 -5.262049 11.396791 -1.440795 10.196298 0.410507 -4.341908 -8.503567 -6.190516 13.880938 3.531821 -11.888599 -3.971153 3.534325 -0.599246 3.799835 7.886411 -10.516173 4.880055 2.191883 2.082775 -3.127378 0.480176 2.543297 13.950703 1.288429 1.233653 3.403040 0.012784 16.892852 28.244357 -6.842235 9.702317 18.851530 -15.204024 8.804830 12.257600 -49.399584 -0.176067 12.482942 -50.459027 -79.519477 80.802433 0.604015 -30.621084 -1.411758 -2.953499 7.318529 -17.190788 22.418276 2.600371 14.985863 49.251930 7.524757 10.042301 -4.112488 30.188450 9.174688 1.484979 14.829371 -3.746956 -3.219456 -3.126561 -3.419183 
